<?xml version="1.0" standalone="no"?>
<!DOCTYPE svg PUBLIC "-//W3C//DTD SVG 20010904//EN"
 "http://www.w3.org/TR/2001/REC-SVG-20010904/DTD/svg10.dtd">
<svg version="1.0" xmlns="http://www.w3.org/2000/svg"
 width="300.000000pt" height="300.000000pt" viewBox="0 0 300.000000 300.000000"
 preserveAspectRatio="xMidYMid meet">
<metadata>
Created by potrace 1.10, written by Peter Selinger 2001-2011
</metadata>
<g transform="translate(0.000000,300.000000) scale(0.100000,-0.100000)"
fill="#000000" stroke="none">
<path d="M1283 2123 c-4 -10 -31 -45 -60 -77 -29 -33 -53 -63 -53 -68 0 -4
-18 -8 -39 -8 -58 0 -90 -16 -105 -51 -10 -24 -25 -36 -60 -50 -25 -9 -54 -15
-64 -12 -23 6 -44 -19 -36 -41 3 -9 15 -16 25 -16 14 0 30 -23 61 -85 l42 -84
-18 -53 c-11 -29 -28 -63 -38 -75 -11 -12 -17 -26 -13 -32 3 -6 -1 -11 -9 -11
-22 0 -31 -39 -13 -57 23 -23 61 0 53 33 -14 55 46 4 63 -53 16 -57 42 -73
116 -73 l60 0 -53 30 c-56 31 -163 123 -173 148 -6 17 31 126 40 116 3 -3 4
-33 3 -67 -3 -60 -2 -63 35 -98 21 -21 63 -53 94 -72 50 -32 169 -150 167
-166 -3 -23 5 -32 25 -29 29 4 31 42 1 46 -23 3 -85 62 -66 62 19 0 66 -24 75
-37 11 -17 44 -16 50 1 8 20 -18 39 -41 31 -21 -6 -127 36 -146 58 -6 8 -39
51 -74 97 -67 89 -215 370 -206 393 4 12 64 47 79 47 3 0 5 -24 5 -52 l0 -53
29 61 c31 66 99 143 110 125 4 -6 31 18 63 58 31 38 69 75 85 83 15 7 28 20
28 28 0 22 -34 25 -42 3z"/>
<path d="M1388 2074 c-8 -16 -36 -38 -78 -59 -36 -19 -57 -34 -47 -35 9 0 41
13 70 29 34 20 61 28 78 24 34 -6 55 18 39 46 -15 29 -48 26 -62 -5z"/>
<path d="M1510 1978 c0 -3 17 -12 37 -19 20 -6 138 -52 262 -100 123 -49 227
-87 229 -85 9 10 -55 110 -87 137 -71 58 -93 64 -274 69 -92 3 -167 2 -167 -2z
m343 -51 c39 -17 97 -64 97 -80 0 -8 -4 -7 -12 1 -7 7 -22 12 -34 12 -13 0
-25 3 -27 8 -3 4 -37 18 -75 31 -39 14 -69 28 -66 33 8 13 82 9 117 -5z"/>
<path d="M1283 1955 c-34 -14 -123 -92 -123 -106 0 -5 64 -9 143 -9 l142 0 0
65 0 65 -65 0 c-36 -1 -79 -7 -97 -15z m125 -47 c2 -16 2 -28 0 -29 -41 -6
-125 -9 -145 -4 -24 6 -25 7 -7 26 21 24 67 38 114 36 30 -2 35 -6 38 -29z"/>
<path d="M1182 1944 c-12 -8 -26 -13 -30 -10 -25 16 -146 -200 -140 -250 3
-24 10 -15 58 67 30 52 80 120 110 151 35 36 50 58 40 58 -8 0 -26 -7 -38 -16z"/>
<path d="M1510 1909 c0 -15 4 -19 16 -15 9 3 21 6 27 6 13 1 -22 30 -35 30 -4
0 -8 -9 -8 -21z"/>
<path d="M1610 1901 c0 -5 9 -13 20 -16 11 -3 20 -11 20 -17 0 -5 10 -18 23
-28 24 -20 23 -24 -10 -34 -17 -6 -23 -3 -23 8 0 13 -12 16 -62 16 l-63 0 44
-25 c23 -14 50 -25 58 -25 8 0 12 -4 8 -9 -3 -5 -1 -12 5 -16 5 -3 10 1 10 9
0 9 17 23 37 31 l37 16 48 -48 48 -48 -47 -21 -48 -21 -37 35 c-21 20 -38 33
-38 29 0 -4 -10 -1 -22 7 -20 13 -26 13 -42 0 -19 -14 -19 -14 1 -36 12 -13
29 -39 40 -59 l18 -35 30 18 c17 10 35 18 40 18 15 -1 80 -93 68 -97 -23 -8
-103 -65 -103 -74 0 -14 4 -12 61 27 45 30 55 33 64 21 38 -55 36 -54 30 -27
-13 52 -11 54 37 65 25 5 50 13 54 17 4 5 -10 33 -31 63 -21 31 -36 57 -34 59
2 2 20 6 40 10 36 6 36 6 42 -31 4 -21 4 -49 0 -63 l-6 -25 31 29 31 29 -19
27 c-33 47 -46 53 -98 46 -47 -6 -49 -5 -92 39 -24 24 -42 46 -39 48 2 2 20 9
39 15 33 11 31 11 -21 6 -43 -4 -59 -1 -69 10 -11 14 -8 16 21 16 33 1 33 1
-16 21 -75 29 -85 31 -85 20z m65 -246 c-30 -22 -35 -19 -35 27 l0 43 27 -28
c27 -26 27 -27 8 -42z m188 -8 l39 -52 -53 -15 -53 -16 -34 49 c-18 27 -32 50
-30 51 4 3 82 34 88 35 3 0 22 -23 43 -52z"/>
<path d="M1533 1878 c-44 -21 -26 -33 44 -30 l68 4 -24 19 c-26 21 -54 23 -88
7z"/>
<path d="M1092 1743 c-68 -117 -66 -101 -16 -189 25 -43 49 -83 54 -88 5 -5 6
18 3 53 l-6 61 108 -2 107 -3 49 54 c27 30 49 58 49 63 0 4 -70 8 -156 8
l-157 0 6 55 c3 30 4 55 2 55 -2 0 -22 -30 -43 -67z m161 -70 c64 -2 117 -8
117 -14 0 -5 -9 -18 -20 -29 -15 -15 -34 -20 -77 -21 -103 -2 -132 -6 -148
-19 -31 -26 -63 27 -45 75 9 23 14 26 33 19 12 -4 75 -9 140 -11z"/>
<path d="M1510 1790 c0 -24 34 -44 56 -32 14 8 12 12 -14 31 -37 26 -42 26
-42 1z"/>
<path d="M1902 1776 c32 -31 43 -36 84 -36 57 0 52 7 -24 36 -31 12 -66 25
-77 29 -13 5 -7 -5 17 -29z"/>
<path d="M1510 1528 l0 -218 71 0 71 0 -6 118 c-6 100 -11 126 -36 177 -16 33
-45 78 -64 100 l-35 40 -1 -217z m84 18 c8 -28 14 -60 14 -71 0 -11 3 -41 7
-66 7 -42 5 -48 -14 -59 -42 -22 -49 -1 -50 142 -2 117 0 130 14 118 8 -7 21
-36 29 -64z"/>
<path d="M1960 1723 c1 -5 10 -19 21 -32 l20 -25 32 32 32 32 -53 0 c-28 0
-52 -3 -52 -7z"/>
<path d="M1982 1616 c-40 -41 -72 -79 -72 -84 0 -14 -70 -82 -84 -82 -11 0
-146 -130 -146 -140 0 -3 39 -2 87 1 132 8 215 63 264 174 20 45 41 205 27
205 -3 0 -37 -33 -76 -74z m32 -53 c-11 -47 -44 -117 -67 -141 -44 -48 -167
-93 -167 -62 0 5 26 29 58 52 69 52 72 55 96 93 23 37 67 85 78 85 5 0 6 -12
2 -27z"/>
<path d="M1724 1433 c-41 -4 -42 -5 -46 -46 -3 -23 -4 -43 -3 -44 1 -2 23 20
50 47 27 28 47 49 45 48 -3 -1 -24 -3 -46 -5z"/>
<path d="M1181 1400 c13 -16 41 -42 62 -57 34 -24 52 -29 121 -31 l81 -4 0 61
0 61 -143 0 -143 0 22 -30z m224 -30 c0 -22 -5 -25 -43 -28 -30 -2 -54 3 -82
19 -66 37 -50 47 59 39 62 -5 66 -6 66 -30z"/>
<path d="M960 961 l0 -80 47 2 c42 2 49 5 57 29 7 19 6 35 -2 54 -10 22 -18
25 -42 22 -27 -4 -30 -2 -30 24 0 18 -5 28 -15 28 -12 0 -15 -15 -15 -79z m78
-20 c4 -29 -9 -44 -31 -35 -17 6 -23 44 -10 58 14 14 38 0 41 -23z"/>
<path d="M1165 1012 c6 -27 4 -29 -20 -25 -34 7 -55 -13 -55 -52 0 -41 15 -54
63 -52 l37 1 0 68 c0 37 0 71 1 76 0 4 -7 9 -16 10 -14 3 -16 -2 -10 -26z m0
-63 c8 -24 -16 -55 -34 -45 -12 8 -15 49 -4 59 13 14 32 7 38 -14z"/>
<path d="M1884 1029 c-3 -6 -2 -15 2 -19 12 -12 38 5 30 19 -9 14 -23 14 -32
0z"/>
<path d="M830 955 l0 -75 55 0 c42 0 55 3 55 15 0 11 -11 15 -40 15 -33 0 -40
3 -40 20 0 16 7 20 35 20 19 0 35 5 35 10 0 6 -16 10 -35 10 -28 0 -35 4 -35
20 0 17 7 20 40 20 22 0 40 5 40 10 0 6 -25 10 -55 10 l-55 0 0 -75z"/>
<path d="M1510 955 l0 -75 40 0 c58 0 95 37 86 88 -7 46 -28 62 -83 62 l-43 0
0 -75z m84 39 c33 -32 14 -84 -31 -84 -21 0 -23 4 -23 50 0 43 3 50 19 50 11
0 27 -7 35 -16z"/>
<path d="M1226 981 c-8 -13 9 -22 28 -15 8 3 20 2 27 -2 8 -4 -1 -11 -22 -18
-27 -9 -34 -16 -34 -36 0 -23 4 -25 43 -26 l43 -1 -3 51 c-3 51 -3 51 -40 54
-20 2 -39 -1 -42 -7z m58 -66 c-7 -16 -30 -20 -38 -6 -7 11 4 21 25 21 12 0
16 -5 13 -15z"/>
<path d="M1347 983 c-15 -15 -5 -22 23 -16 17 3 30 1 30 -4 0 -6 -14 -13 -30
-17 -63 -12 -46 -65 21 -64 l39 0 0 42 c0 23 -5 47 -12 54 -13 13 -60 16 -71
5z m51 -65 c-7 -19 -38 -22 -38 -4 0 10 9 16 21 16 12 0 19 -5 17 -12z"/>
<path d="M1672 978 c-17 -17 -15 -73 2 -87 18 -15 68 -10 74 7 3 9 -3 11 -20
7 -16 -4 -29 -1 -37 9 -12 14 -8 16 28 16 33 0 41 4 41 18 0 10 -5 23 -12 30
-15 15 -61 15 -76 0z"/>
<path d="M1787 984 c-17 -18 -6 -45 23 -55 35 -13 29 -33 -7 -24 -18 4 -24 2
-21 -7 3 -7 20 -13 39 -13 29 0 34 4 37 26 3 22 -2 29 -27 37 -37 13 -41 25
-6 20 13 -2 25 2 27 7 3 12 -54 19 -65 9z"/>
<path d="M1885 935 c0 -37 4 -55 13 -55 8 0 12 18 12 55 0 37 -4 55 -12 55 -9
0 -13 -18 -13 -55z"/>
<path d="M1952 978 c-7 -7 -12 -27 -12 -45 0 -36 26 -58 56 -46 12 4 15 2 12
-8 -3 -9 -17 -13 -37 -11 -32 2 -42 -11 -15 -22 25 -10 59 -7 72 6 7 7 12 39
12 75 l0 63 -38 0 c-21 0 -43 -5 -50 -12z m56 -41 c3 -22 -1 -27 -17 -27 -17
0 -21 6 -21 31 0 24 4 30 18 27 10 -2 18 -14 20 -31z"/>
<path d="M2070 935 c0 -42 3 -55 15 -55 11 0 15 12 15 46 0 38 3 45 18 42 12
-2 18 -15 20 -46 2 -28 8 -42 18 -42 18 0 20 80 2 98 -7 7 -29 12 -50 12 l-38
0 0 -55z"/>
</g>
</svg>
